<?xml version="1.0" encoding="UTF-8"?>

<svg version="1.2" baseProfile="tiny" width="128.26mm" height="68mm" viewBox="4987 9800 12826 6800" preserveAspectRatio="xMidYMid" fill-rule="evenodd" stroke-width="28.222" stroke-linejoin="round" xmlns="http://www.w3.org/2000/svg" xmlns:xlink="http://www.w3.org/1999/xlink" xml:space="preserve">
 <g visibility="visible" id="Slide_1">
  <g>
   <path fill="rgb(255,255,102)" stroke="none" d="M 5000,11256 L 5399,10832 5399,10832 5521,10729 5739,12394 5799,11822 5799,11817 5971,10378 6199,10226 6199,10226 6599,10032 6599,10032 6622,10025 6622,13068 6599,13075 6599,13075 6204,13266 6204,10946 6199,10977 6199,10982 5907,13463 5799,13534 5799,13534 5578,13722 5399,12343 5399,12341 5317,11642 5317,13962 5000,14299 5000,11256 Z"/>
   <path fill="none" stroke="rgb(0,0,0)" id="Drawing_1_0" stroke-width="26" d="M 5000,11256 L 5399,10832 5399,10832 5521,10729 5739,12394 5799,11822 5799,11817 5971,10378 6199,10226 6199,10226 6599,10032 6599,10032 6622,10025 6622,13068 6599,13075 6599,13075 6204,13266 6204,10946 6199,10977 6199,10982 5907,13463 5799,13534 5799,13534 5578,13722 5399,12343 5399,12341 5317,11642 5317,13962 5000,14299 5000,11256 Z"/>
   <path fill="rgb(255,255,102)" stroke="none" d="M 6793,10807 L 6999,10741 6999,10741 7314,10687 7399,11137 7399,11139 7586,12134 7799,10893 7799,10890 7840,10663 8199,10694 8199,10694 8336,10721 8199,11311 8199,11316 7814,13016 7799,13076 7799,13079 7792,13112 7770,13202 7746,13283 7724,13356 7700,13420 7678,13477 7655,13525 7642,13546 7631,13565 7614,13589 7596,13613 7576,13634 7556,13655 7534,13673 7512,13691 7464,13721 7412,13744 7399,13746 7399,13747 7356,13768 7296,13787 7230,13802 7169,13809 7094,13813 7003,13811 6999,13811 6999,13811 6901,13822 6862,13246 6888,13251 6916,13254 6943,13254 6972,13253 6999,13250 6999,13250 7002,13251 7034,13250 7065,13247 7098,13243 7120,13237 7140,13230 7159,13222 7178,13212 7195,13199 7211,13184 7227,13168 7242,13149 7249,13139 7255,13128 7268,13104 7280,13076 7292,13045 7303,13011 7314,12974 7324,12933 7334,12889 6999,11602 6999,11599 6793,10807 Z"/>
   <path fill="none" stroke="rgb(0,0,0)" id="Drawing_1_1" stroke-width="26" d="M 6793,10807 L 6999,10741 6999,10741 7314,10687 7399,11137 7399,11139 7586,12134 7799,10893 7799,10890 7840,10663 8199,10694 8199,10694 8336,10721 8199,11311 8199,11316 7814,13016 7799,13076 7799,13079 7792,13112 7770,13202 7746,13283 7724,13356 7700,13420 7678,13477 7655,13525 7642,13546 7631,13565 7614,13589 7596,13613 7576,13634 7556,13655 7534,13673 7512,13691 7464,13721 7412,13744 7399,13746 7399,13747 7356,13768 7296,13787 7230,13802 7169,13809 7094,13813 7003,13811 6999,13811 6999,13811 6901,13822 6862,13246 6888,13251 6916,13254 6943,13254 6972,13253 6999,13250 6999,13250 7002,13251 7034,13250 7065,13247 7098,13243 7120,13237 7140,13230 7159,13222 7178,13212 7195,13199 7211,13184 7227,13168 7242,13149 7249,13139 7255,13128 7268,13104 7280,13076 7292,13045 7303,13011 7314,12974 7324,12933 7334,12889 6999,11602 6999,11599 6793,10807 Z"/>
   <path fill="rgb(255,255,102)" stroke="none" d="M 10409,12511 L 10843,12998 10831,13076 10818,13150 10803,13220 10787,13285 10769,13347 10749,13402 10728,13455 10705,13502 10681,13545 10655,13583 10628,13618 10600,13648 10570,13674 10538,13695 10505,13711 10471,13725 10435,13733 10397,13735 10356,13733 10313,13727 10267,13715 10219,13699 10169,13677 10116,13650 10053,13613 9991,13573 9933,13529 9879,13484 9827,13436 9799,13405 9799,13405 9777,13386 9728,13337 9683,13285 9640,13228 9598,13164 9559,13095 9520,13018 9482,12937 9447,12847 9413,12752 9381,12653 9351,12548 9325,12437 9303,12321 9285,12200 9272,12076 9262,11946 9256,11812 9254,11672 9258,11491 9269,11322 9285,11168 9310,11027 9325,10962 9342,10901 9360,10842 9380,10788 9401,10736 9425,10688 9450,10644 9478,10603 9506,10565 9536,10532 9568,10502 9601,10475 9635,10454 9671,10434 9709,10421 9747,10410 9799,10402 9799,10400 9828,10402 9911,10416 9999,10445 10093,10490 10167,10534 10237,10584 10302,10636 10364,10695 10422,10759 10476,10829 10525,10903 10548,10942 10570,10983 10612,11068 10652,11159 10687,11257 10721,11360 10752,11470 10780,11587 10805,11709 10828,11838 10390,11784 10378,11713 10372,11679 10367,11651 10360,11622 10354,11598 10348,11575 10342,11554 10331,11521 10319,11491 10308,11461 10295,11432 10283,11407 10268,11380 10255,11356 10240,11332 10224,11311 10208,11290 10192,11271 10176,11254 10159,11238 10141,11223 10123,11211 10106,11200 10085,11190 10065,11181 10045,11175 10026,11173 10008,11172 9990,11173 9973,11177 9956,11183 9941,11191 9926,11204 9911,11216 9897,11232 9884,11248 9871,11268 9859,11292 9847,11317 9839,11338 9831,11359 9824,11383 9818,11409 9806,11467 9799,11509 9799,11512 9796,11535 9789,11610 9783,11692 9779,11782 9778,11880 9779,12002 9784,12116 9791,12221 9799,12316 9799,12319 9799,12321 9811,12403 9817,12444 9824,12483 9832,12520 9841,12554 9850,12586 9860,12616 9871,12644 9881,12672 9893,12697 9905,12722 9917,12746 9931,12769 9944,12789 9957,12810 9973,12829 9987,12847 10003,12862 10019,12878 10052,12904 10088,12927 10123,12945 10155,12954 10184,12960 10199,12959 10213,12958 10226,12956 10239,12951 10250,12945 10262,12938 10274,12929 10284,12919 10293,12907 10303,12894 10321,12863 10337,12828 10352,12789 10366,12742 10378,12693 10390,12636 10400,12576 10409,12511 Z"/>
   <path fill="none" stroke="rgb(0,0,0)" id="Drawing_1_2" stroke-width="26" d="M 10409,12511 L 10843,12998 10831,13076 10818,13150 10803,13220 10787,13285 10769,13347 10749,13402 10728,13455 10705,13502 10681,13545 10655,13583 10628,13618 10600,13648 10570,13674 10538,13695 10505,13711 10471,13725 10435,13733 10397,13735 10356,13733 10313,13727 10267,13715 10219,13699 10169,13677 10116,13650 10053,13613 9991,13573 9933,13529 9879,13484 9827,13436 9799,13405 9799,13405 9777,13386 9728,13337 9683,13285 9640,13228 9598,13164 9559,13095 9520,13018 9482,12937 9447,12847 9413,12752 9381,12653 9351,12548 9325,12437 9303,12321 9285,12200 9272,12076 9262,11946 9256,11812 9254,11672 9258,11491 9269,11322 9285,11168 9310,11027 9325,10962 9342,10901 9360,10842 9380,10788 9401,10736 9425,10688 9450,10644 9478,10603 9506,10565 9536,10532 9568,10502 9601,10475 9635,10454 9671,10434 9709,10421 9747,10410 9799,10402 9799,10400 9828,10402 9911,10416 9999,10445 10093,10490 10167,10534 10237,10584 10302,10636 10364,10695 10422,10759 10476,10829 10525,10903 10548,10942 10570,10983 10612,11068 10652,11159 10687,11257 10721,11360 10752,11470 10780,11587 10805,11709 10828,11838 10390,11784 10378,11713 10372,11679 10367,11651 10360,11622 10354,11598 10348,11575 10342,11554 10331,11521 10319,11491 10308,11461 10295,11432 10283,11407 10268,11380 10255,11356 10240,11332 10224,11311 10208,11290 10192,11271 10176,11254 10159,11238 10141,11223 10123,11211 10106,11200 10085,11190 10065,11181 10045,11175 10026,11173 10008,11172 9990,11173 9973,11177 9956,11183 9941,11191 9926,11204 9911,11216 9897,11232 9884,11248 9871,11268 9859,11292 9847,11317 9839,11338 9831,11359 9824,11383 9818,11409 9806,11467 9799,11509 9799,11512 9796,11535 9789,11610 9783,11692 9779,11782 9778,11880 9779,12002 9784,12116 9791,12221 9799,12316 9799,12319 9799,12321 9811,12403 9817,12444 9824,12483 9832,12520 9841,12554 9850,12586 9860,12616 9871,12644 9881,12672 9893,12697 9905,12722 9917,12746 9931,12769 9944,12789 9957,12810 9973,12829 9987,12847 10003,12862 10019,12878 10052,12904 10088,12927 10123,12945 10155,12954 10184,12960 10199,12959 10213,12958 10226,12956 10239,12951 10250,12945 10262,12938 10274,12929 10284,12919 10293,12907 10303,12894 10321,12863 10337,12828 10352,12789 10366,12742 10378,12693 10390,12636 10400,12576 10409,12511 Z"/>
   <path fill="rgb(255,255,102)" stroke="none" d="M 10998,12982 L 11001,12860 11010,12748 11016,12696 11024,12644 11032,12594 11043,12548 11056,12504 11069,12462 11083,12420 11099,12382 11117,12346 11136,12312 11178,12250 11201,12224 11225,12199 11250,12177 11276,12159 11302,12145 11331,12133 11360,12125 11389,12119 11400,12118 11400,12117 11452,12118 11519,12129 11589,12153 11663,12188 11748,12241 11827,12301 11901,12372 11936,12412 11970,12452 12002,12495 12032,12541 12063,12588 12090,12639 12117,12691 12143,12745 12167,12803 12191,12861 12224,12959 12253,13058 12278,13160 12298,13264 12314,13371 12325,13479 12332,13589 12333,13700 12331,13823 12323,13937 12308,14043 12299,14092 12289,14139 12277,14183 12264,14227 12249,14266 12233,14305 12216,14342 12198,14375 12156,14437 12133,14464 12109,14488 12084,14508 12058,14526 12031,14540 12003,14552 11974,14560 11944,14565 11880,14565 11813,14553 11740,14529 11664,14492 11596,14452 11531,14402 11469,14348 11411,14286 11400,14271 11400,14271 11356,14218 11304,14144 11256,14062 11211,13975 11185,13918 11161,13861 11139,13803 11118,13745 11099,13685 11082,13624 11066,13564 11052,13502 11040,13439 11029,13377 11019,13312 11012,13247 11006,13183 11002,13117 10998,12982 Z M 11445,13225 L 11446,13297 11449,13364 11454,13430 11461,13490 11469,13547 11475,13573 11480,13600 11486,13625 11494,13650 11501,13672 11508,13695 11524,13737 11533,13756 11541,13776 11550,13792 11560,13809 11569,13825 11578,13840 11589,13854 11599,13867 11610,13879 11620,13890 11631,13899 11643,13909 11654,13917 11666,13924 11689,13935 11701,13938 11712,13941 11723,13941 11734,13940 11744,13939 11754,13936 11763,13933 11773,13928 11782,13921 11791,13914 11800,13905 11808,13894 11824,13871 11831,13856 11838,13842 11846,13825 11851,13806 11857,13786 11862,13763 11871,13715 11878,13660 11883,13600 11886,13532 11887,13458 11886,13388 11883,13322 11878,13260 11871,13200 11863,13145 11857,13118 11852,13093 11846,13067 11838,13043 11831,13021 11824,12998 11808,12957 11800,12937 11791,12919 11782,12901 11773,12885 11764,12869 11755,12855 11745,12841 11735,12829 11724,12816 11714,12806 11704,12797 11692,12787 11681,12779 11670,12773 11646,12761 11634,12758 11623,12756 11612,12755 11601,12756 11591,12757 11580,12760 11570,12764 11561,12769 11552,12776 11543,12783 11534,12792 11525,12802 11509,12827 11501,12842 11494,12856 11487,12875 11481,12892 11476,12913 11470,12933 11461,12981 11454,13033 11449,13091 11446,13156 11445,13225 Z"/>
   <path fill="none" stroke="rgb(0,0,0)" id="Drawing_1_3" stroke-width="26" d="M 10998,12982 L 11001,12860 11010,12748 11016,12696 11024,12644 11032,12594 11043,12548 11056,12504 11069,12462 11083,12420 11099,12382 11117,12346 11136,12312 11178,12250 11201,12224 11225,12199 11250,12177 11276,12159 11302,12145 11331,12133 11360,12125 11389,12119 11400,12118 11400,12117 11452,12118 11519,12129 11589,12153 11663,12188 11748,12241 11827,12301 11901,12372 11936,12412 11970,12452 12002,12495 12032,12541 12063,12588 12090,12639 12117,12691 12143,12745 12167,12803 12191,12861 12224,12959 12253,13058 12278,13160 12298,13264 12314,13371 12325,13479 12332,13589 12333,13700 12331,13823 12323,13937 12308,14043 12299,14092 12289,14139 12277,14183 12264,14227 12249,14266 12233,14305 12216,14342 12198,14375 12156,14437 12133,14464 12109,14488 12084,14508 12058,14526 12031,14540 12003,14552 11974,14560 11944,14565 11880,14565 11813,14553 11740,14529 11664,14492 11596,14452 11531,14402 11469,14348 11411,14286 11400,14271 11400,14271 11356,14218 11304,14144 11256,14062 11211,13975 11185,13918 11161,13861 11139,13803 11118,13745 11099,13685 11082,13624 11066,13564 11052,13502 11040,13439 11029,13377 11019,13312 11012,13247 11006,13183 11002,13117 10998,12982 Z"/>
   <path fill="none" stroke="rgb(0,0,0)" id="Drawing_1_4" stroke-width="26" d="M 11445,13225 L 11446,13297 11449,13364 11454,13430 11461,13490 11469,13547 11475,13573 11480,13600 11486,13625 11494,13650 11501,13672 11508,13695 11524,13737 11533,13756 11541,13776 11550,13792 11560,13809 11569,13825 11578,13840 11589,13854 11599,13867 11610,13879 11620,13890 11631,13899 11643,13909 11654,13917 11666,13924 11689,13935 11701,13938 11712,13941 11723,13941 11734,13940 11744,13939 11754,13936 11763,13933 11773,13928 11782,13921 11791,13914 11800,13905 11808,13894 11824,13871 11831,13856 11838,13842 11846,13825 11851,13806 11857,13786 11862,13763 11871,13715 11878,13660 11883,13600 11886,13532 11887,13458 11886,13388 11883,13322 11878,13260 11871,13200 11863,13145 11857,13118 11852,13093 11846,13067 11838,13043 11831,13021 11824,12998 11808,12957 11800,12937 11791,12919 11782,12901 11773,12885 11764,12869 11755,12855 11745,12841 11735,12829 11724,12816 11714,12806 11704,12797 11692,12787 11681,12779 11670,12773 11646,12761 11634,12758 11623,12756 11612,12755 11601,12756 11591,12757 11580,12760 11570,12764 11561,12769 11552,12776 11543,12783 11534,12792 11525,12802 11509,12827 11501,12842 11494,12856 11487,12875 11481,12892 11476,12913 11470,12933 11461,12981 11454,13033 11449,13091 11446,13156 11445,13225 Z"/>
   <path fill="rgb(255,255,102)" stroke="none" d="M 13815,15505 L 13800,15501 13800,15501 13376,15327 13376,14970 13351,15012 13327,15053 13302,15087 13277,15119 13253,15146 13228,15169 13203,15187 13178,15202 13153,15214 13125,15221 13096,15226 13067,15226 13035,15223 13002,15218 13000,15218 13000,15218 12970,15204 12936,15187 12891,15160 12849,15126 12809,15089 12790,15067 12772,15045 12754,15022 12737,14998 12721,14972 12705,14944 12690,14916 12676,14886 12661,14854 12648,14822 12635,14788 12624,14752 12612,14716 12602,14678 12593,14639 12584,14599 12576,14557 12569,14514 12558,14423 12550,14329 12545,14228 12543,14122 12543,12718 12991,12963 12991,14177 12992,14227 12994,14275 12996,14319 13000,14353 13000,14356 13001,14359 13007,14397 13010,14415 13014,14432 13019,14447 13023,14462 13028,14477 13033,14490 13039,14503 13044,14515 13050,14528 13056,14539 13063,14548 13070,14558 13077,14568 13085,14576 13092,14584 13100,14592 13117,14606 13134,14616 13153,14626 13163,14630 13173,14633 13184,14635 13193,14636 13203,14634 13212,14633 13220,14632 13230,14629 13238,14624 13247,14619 13254,14612 13262,14604 13269,14596 13277,14587 13291,14566 13298,14553 13303,14538 13309,14524 13315,14506 13319,14487 13324,14467 13332,14421 13337,14367 13341,14308 13344,14243 13345,14171 13345,13110 13800,13296 13800,13296 13815,13300 13815,15505 Z"/>
   <path fill="none" stroke="rgb(0,0,0)" id="Drawing_1_5" stroke-width="26" d="M 13815,15505 L 13800,15501 13800,15501 13376,15327 13376,14970 13351,15012 13327,15053 13302,15087 13277,15119 13253,15146 13228,15169 13203,15187 13178,15202 13153,15214 13125,15221 13096,15226 13067,15226 13035,15223 13002,15218 13000,15218 13000,15218 12970,15204 12936,15187 12891,15160 12849,15126 12809,15089 12790,15067 12772,15045 12754,15022 12737,14998 12721,14972 12705,14944 12690,14916 12676,14886 12661,14854 12648,14822 12635,14788 12624,14752 12612,14716 12602,14678 12593,14639 12584,14599 12576,14557 12569,14514 12558,14423 12550,14329 12545,14228 12543,14122 12543,12718 12991,12963 12991,14177 12992,14227 12994,14275 12996,14319 13000,14353 13000,14356 13001,14359 13007,14397 13010,14415 13014,14432 13019,14447 13023,14462 13028,14477 13033,14490 13039,14503 13044,14515 13050,14528 13056,14539 13063,14548 13070,14558 13077,14568 13085,14576 13092,14584 13100,14592 13117,14606 13134,14616 13153,14626 13163,14630 13173,14633 13184,14635 13193,14636 13203,14634 13212,14633 13220,14632 13230,14629 13238,14624 13247,14619 13254,14612 13262,14604 13269,14596 13277,14587 13291,14566 13298,14553 13303,14538 13309,14524 13315,14506 13319,14487 13324,14467 13332,14421 13337,14367 13341,14308 13344,14243 13345,14171 13345,13110 13800,13296 13800,13296 13815,13300 13815,15505 Z"/>
   <path fill="rgb(255,255,102)" stroke="none" d="M 14115,13388 L 14200,13413 14200,13413 14578,13488 14578,13851 14595,13798 14600,13782 14600,13781 14612,13748 14630,13702 14647,13661 14665,13624 14682,13593 14701,13564 14719,13542 14738,13523 14758,13507 14779,13493 14800,13483 14823,13475 14848,13471 14872,13469 14899,13470 14927,13474 14956,13482 14986,13495 15000,13501 15000,13501 15016,13508 15047,13523 15078,13543 15111,13565 15143,13591 15000,14140 15000,14144 14987,14197 14944,14166 14925,14152 14907,14142 14889,14134 14873,14127 14859,14124 14845,14121 14833,14120 14820,14121 14809,14123 14798,14126 14787,14130 14777,14134 14767,14141 14757,14147 14747,14157 14738,14166 14729,14175 14721,14188 14713,14199 14706,14214 14699,14228 14692,14245 14682,14269 14673,14297 14664,14327 14657,14359 14643,14432 14633,14517 14624,14612 14618,14716 14613,14833 14612,14960 14612,15699 14600,15698 14600,15698 14200,15619 14200,15619 14115,15594 14115,13388 Z"/>
   <path fill="none" stroke="rgb(0,0,0)" id="Drawing_1_6" stroke-width="26" d="M 14115,13388 L 14200,13413 14200,13413 14578,13488 14578,13851 14595,13798 14600,13782 14600,13781 14612,13748 14630,13702 14647,13661 14665,13624 14682,13593 14701,13564 14719,13542 14738,13523 14758,13507 14779,13493 14800,13483 14823,13475 14848,13471 14872,13469 14899,13470 14927,13474 14956,13482 14986,13495 15000,13501 15000,13501 15016,13508 15047,13523 15078,13543 15111,13565 15143,13591 15000,14140 15000,14144 14987,14197 14944,14166 14925,14152 14907,14142 14889,14134 14873,14127 14859,14124 14845,14121 14833,14120 14820,14121 14809,14123 14798,14126 14787,14130 14777,14134 14767,14141 14757,14147 14747,14157 14738,14166 14729,14175 14721,14188 14713,14199 14706,14214 14699,14228 14692,14245 14682,14269 14673,14297 14664,14327 14657,14359 14643,14432 14633,14517 14624,14612 14618,14716 14613,14833 14612,14960 14612,15699 14600,15698 14600,15698 14200,15619 14200,15619 14115,15594 14115,13388 Z"/>
   <path fill="rgb(255,255,102)" stroke="none" d="M 15139,15117 L 15400,15065 15400,15064 15640,14987 15648,15022 15657,15054 15667,15083 15677,15110 15688,15132 15700,15154 15713,15172 15726,15186 15740,15199 15756,15210 15773,15217 15791,15224 15800,15226 15800,15226 15809,15227 15830,15225 15850,15221 15871,15215 15894,15206 15917,15196 15938,15184 15957,15169 15976,15153 15992,15136 16000,15126 16008,15115 16015,15105 16021,15094 16031,15077 16036,15069 16040,15059 16044,15051 16047,15042 16051,15032 16052,15025 16055,15015 16057,15006 16059,14995 16060,14987 16062,14976 16062,14967 16063,14957 16063,14947 16063,14935 16062,14925 16061,14915 16059,14906 16057,14896 16055,14886 16052,14877 16050,14870 16046,14862 16042,14855 16037,14848 16032,14843 16027,14838 16021,14833 16016,14828 16009,14823 16003,14820 15997,14819 15981,14814 15961,14810 15937,14808 15878,14803 15801,14804 15800,14803 15800,14803 15681,14786 15581,14767 15499,14747 15467,14735 15439,14723 15414,14711 15400,14699 15400,14699 15391,14691 15367,14670 15345,14644 15324,14616 15304,14584 15285,14549 15267,14512 15250,14474 15236,14434 15224,14392 15214,14348 15207,14304 15200,14257 15197,14210 15196,14161 15197,14108 15201,14055 15207,14006 15215,13958 15226,13912 15238,13868 15253,13825 15272,13783 15292,13744 15313,13707 15337,13674 15362,13643 15390,13613 15400,13603 15400,13601 15418,13584 15448,13556 15480,13530 15514,13505 15552,13484 15592,13463 15634,13444 15680,13428 15728,13415 15800,13397 15800,13397 15832,13387 15937,13357 16028,13339 16068,13335 16104,13333 16136,13337 16165,13341 16191,13348 16200,13352 16200,13352 16215,13356 16238,13365 16260,13377 16280,13391 16301,13408 16319,13428 16336,13450 16353,13476 16368,13504 16384,13534 16399,13569 16412,13606 16425,13647 16437,13691 16449,13738 16200,13901 16200,13902 16005,13999 16000,13975 15994,13953 15989,13933 15982,13915 15974,13899 15965,13885 15960,13880 15956,13874 15951,13869 15946,13864 15931,13853 15916,13843 15899,13837 15883,13833 15865,13832 15847,13831 15828,13836 15808,13841 15800,13843 15800,13843 15788,13845 15769,13852 15751,13858 15735,13868 15721,13877 15707,13888 15701,13894 15695,13900 15690,13906 15685,13914 15676,13929 15672,13936 15668,13944 15664,13951 15661,13960 15658,13967 15656,13976 15653,13983 15651,13992 15650,14001 15648,14010 15647,14018 15647,14027 15646,14036 15646,14044 15646,14054 15647,14064 15648,14072 15649,14081 15651,14091 15653,14097 15655,14105 15658,14113 15662,14119 15665,14125 15669,14132 15674,14138 15678,14144 15684,14148 15695,14158 15702,14162 15709,14165 15727,14173 15748,14179 15773,14183 15800,14186 15800,14186 15832,14187 15905,14181 16018,14171 16115,14170 16158,14174 16197,14180 16200,14180 16200,14180 16231,14184 16260,14190 16287,14199 16313,14212 16336,14228 16358,14246 16379,14266 16398,14291 16415,14319 16431,14350 16444,14384 16456,14419 16466,14455 16475,14495 16481,14534 16486,14578 16488,14622 16489,14667 16488,14715 16486,14764 16480,14814 16474,14863 16465,14913 16455,14964 16442,15016 16427,15069 16411,15121 16391,15171 16370,15222 16347,15268 16321,15317 16293,15363 16263,15408 16231,15450 16200,15486 16200,15487 16196,15492 16155,15527 16112,15558 16065,15589 16015,15617 15961,15642 15905,15666 15846,15686 15800,15698 15800,15698 15761,15704 15682,15711 15609,15710 15541,15703 15481,15689 15427,15668 15403,15657 15400,15654 15400,15654 15380,15639 15358,15620 15338,15600 15301,15555 15268,15507 15238,15454 15212,15396 15188,15332 15169,15265 15153,15194 15139,15117 Z"/>
   <path fill="none" stroke="rgb(0,0,0)" id="Drawing_1_7" stroke-width="26" d="M 15139,15117 L 15400,15065 15400,15064 15640,14987 15648,15022 15657,15054 15667,15083 15677,15110 15688,15132 15700,15154 15713,15172 15726,15186 15740,15199 15756,15210 15773,15217 15791,15224 15800,15226 15800,15226 15809,15227 15830,15225 15850,15221 15871,15215 15894,15206 15917,15196 15938,15184 15957,15169 15976,15153 15992,15136 16000,15126 16008,15115 16015,15105 16021,15094 16031,15077 16036,15069 16040,15059 16044,15051 16047,15042 16051,15032 16052,15025 16055,15015 16057,15006 16059,14995 16060,14987 16062,14976 16062,14967 16063,14957 16063,14947 16063,14935 16062,14925 16061,14915 16059,14906 16057,14896 16055,14886 16052,14877 16050,14870 16046,14862 16042,14855 16037,14848 16032,14843 16027,14838 16021,14833 16016,14828 16009,14823 16003,14820 15997,14819 15981,14814 15961,14810 15937,14808 15878,14803 15801,14804 15800,14803 15800,14803 15681,14786 15581,14767 15499,14747 15467,14735 15439,14723 15414,14711 15400,14699 15400,14699 15391,14691 15367,14670 15345,14644 15324,14616 15304,14584 15285,14549 15267,14512 15250,14474 15236,14434 15224,14392 15214,14348 15207,14304 15200,14257 15197,14210 15196,14161 15197,14108 15201,14055 15207,14006 15215,13958 15226,13912 15238,13868 15253,13825 15272,13783 15292,13744 15313,13707 15337,13674 15362,13643 15390,13613 15400,13603 15400,13601 15418,13584 15448,13556 15480,13530 15514,13505 15552,13484 15592,13463 15634,13444 15680,13428 15728,13415 15800,13397 15800,13397 15832,13387 15937,13357 16028,13339 16068,13335 16104,13333 16136,13337 16165,13341 16191,13348 16200,13352 16200,13352 16215,13356 16238,13365 16260,13377 16280,13391 16301,13408 16319,13428 16336,13450 16353,13476 16368,13504 16384,13534 16399,13569 16412,13606 16425,13647 16437,13691 16449,13738 16200,13901 16200,13902 16005,13999 16000,13975 15994,13953 15989,13933 15982,13915 15974,13899 15965,13885 15960,13880 15956,13874 15951,13869 15946,13864 15931,13853 15916,13843 15899,13837 15883,13833 15865,13832 15847,13831 15828,13836 15808,13841 15800,13843 15800,13843 15788,13845 15769,13852 15751,13858 15735,13868 15721,13877 15707,13888 15701,13894 15695,13900 15690,13906 15685,13914 15676,13929 15672,13936 15668,13944 15664,13951 15661,13960 15658,13967 15656,13976 15653,13983 15651,13992 15650,14001 15648,14010 15647,14018 15647,14027 15646,14036 15646,14044 15646,14054 15647,14064 15648,14072 15649,14081 15651,14091 15653,14097 15655,14105 15658,14113 15662,14119 15665,14125 15669,14132 15674,14138 15678,14144 15684,14148 15695,14158 15702,14162 15709,14165 15727,14173 15748,14179 15773,14183 15800,14186 15800,14186 15832,14187 15905,14181 16018,14171 16115,14170 16158,14174 16197,14180 16200,14180 16200,14180 16231,14184 16260,14190 16287,14199 16313,14212 16336,14228 16358,14246 16379,14266 16398,14291 16415,14319 16431,14350 16444,14384 16456,14419 16466,14455 16475,14495 16481,14534 16486,14578 16488,14622 16489,14667 16488,14715 16486,14764 16480,14814 16474,14863 16465,14913 16455,14964 16442,15016 16427,15069 16411,15121 16391,15171 16370,15222 16347,15268 16321,15317 16293,15363 16263,15408 16231,15450 16200,15486 16200,15487 16196,15492 16155,15527 16112,15558 16065,15589 16015,15617 15961,15642 15905,15666 15846,15686 15800,15698 15800,15698 15761,15704 15682,15711 15609,15710 15541,15703 15481,15689 15427,15668 15403,15657 15400,15654 15400,15654 15380,15639 15358,15620 15338,15600 15301,15555 15268,15507 15238,15454 15212,15396 15188,15332 15169,15265 15153,15194 15139,15117 Z"/>
   <path fill="rgb(255,255,102)" stroke="none" d="M 17800,13406 L 17400,13830 17400,13830 17069,14112 17072,14158 17076,14201 17082,14240 17087,14275 17094,14304 17102,14332 17110,14353 17115,14363 17119,14372 17126,14383 17134,14394 17142,14402 17150,14409 17157,14416 17166,14421 17175,14423 17184,14426 17193,14427 17203,14425 17212,14424 17223,14420 17233,14414 17243,14409 17266,14392 17280,14378 17294,14364 17308,14348 17321,14329 17335,14307 17348,14286 17361,14262 17374,14237 17381,14219 17390,14200 17398,14178 17400,14171 17400,14169 17406,14155 17413,14128 17421,14099 17429,14069 17437,14036 17780,13749 17760,13850 17739,13947 17717,14040 17694,14127 17669,14209 17644,14287 17617,14359 17590,14427 17561,14492 17529,14555 17493,14618 17455,14678 17413,14738 17400,14754 17400,14755 17366,14793 17313,14845 17257,14894 17209,14934 17162,14968 17119,14995 17078,15016 17040,15031 17005,15041 17000,15042 17000,15042 16970,15040 16936,15033 16906,15020 16876,15002 16848,14978 16822,14948 16796,14914 16773,14874 16750,14828 16728,14778 16709,14721 16692,14661 16678,14596 16666,14526 16657,14452 16650,14374 16647,14289 16645,14201 16648,14074 16655,13948 16668,13826 16677,13766 16687,13705 16697,13648 16710,13590 16723,13532 16738,13475 16755,13420 16772,13364 16790,13310 16811,13255 16832,13202 16854,13152 16878,13102 16902,13056 16927,13010 16953,12966 16981,12924 17000,12894 17000,12893 17008,12883 17062,12802 17119,12728 17181,12661 17246,12600 17299,12557 17348,12521 17395,12493 17400,12491 17400,12491 17436,12467 17473,12448 17508,12436 17540,12431 17569,12434 17596,12442 17622,12457 17647,12477 17669,12502 17689,12535 17708,12573 17726,12615 17741,12665 17755,12721 17767,12783 17777,12854 17785,12932 17791,13017 17796,13108 17799,13205 17800,13311 17800,13406 Z M 17446,13378 L 17443,13322 17439,13272 17434,13226 17427,13187 17420,13153 17416,13138 17411,13125 17407,13112 17402,13102 17400,13098 17400,13098 17397,13092 17391,13083 17385,13075 17378,13069 17371,13064 17364,13060 17357,13056 17350,13054 17342,13052 17334,13052 17317,13055 17300,13061 17281,13072 17262,13086 17250,13096 17240,13107 17229,13120 17219,13134 17208,13148 17199,13163 17188,13180 17179,13198 17170,13216 17161,13235 17153,13256 17144,13278 17137,13300 17129,13324 17122,13348 17115,13373 17106,13407 17099,13442 17092,13480 17086,13521 17081,13565 17077,13609 17073,13658 17070,13708 17400,13426 17400,13426 17446,13378 Z"/>
   <path fill="none" stroke="rgb(0,0,0)" id="Drawing_1_8" stroke-width="26" d="M 17800,13406 L 17400,13830 17400,13830 17069,14112 17072,14158 17076,14201 17082,14240 17087,14275 17094,14304 17102,14332 17110,14353 17115,14363 17119,14372 17126,14383 17134,14394 17142,14402 17150,14409 17157,14416 17166,14421 17175,14423 17184,14426 17193,14427 17203,14425 17212,14424 17223,14420 17233,14414 17243,14409 17266,14392 17280,14378 17294,14364 17308,14348 17321,14329 17335,14307 17348,14286 17361,14262 17374,14237 17381,14219 17390,14200 17398,14178 17400,14171 17400,14169 17406,14155 17413,14128 17421,14099 17429,14069 17437,14036 17780,13749 17760,13850 17739,13947 17717,14040 17694,14127 17669,14209 17644,14287 17617,14359 17590,14427 17561,14492 17529,14555 17493,14618 17455,14678 17413,14738 17400,14754 17400,14755 17366,14793 17313,14845 17257,14894 17209,14934 17162,14968 17119,14995 17078,15016 17040,15031 17005,15041 17000,15042 17000,15042 16970,15040 16936,15033 16906,15020 16876,15002 16848,14978 16822,14948 16796,14914 16773,14874 16750,14828 16728,14778 16709,14721 16692,14661 16678,14596 16666,14526 16657,14452 16650,14374 16647,14289 16645,14201 16648,14074 16655,13948 16668,13826 16677,13766 16687,13705 16697,13648 16710,13590 16723,13532 16738,13475 16755,13420 16772,13364 16790,13310 16811,13255 16832,13202 16854,13152 16878,13102 16902,13056 16927,13010 16953,12966 16981,12924 17000,12894 17000,12893 17008,12883 17062,12802 17119,12728 17181,12661 17246,12600 17299,12557 17348,12521 17395,12493 17400,12491 17400,12491 17436,12467 17473,12448 17508,12436 17540,12431 17569,12434 17596,12442 17622,12457 17647,12477 17669,12502 17689,12535 17708,12573 17726,12615 17741,12665 17755,12721 17767,12783 17777,12854 17785,12932 17791,13017 17796,13108 17799,13205 17800,13311 17800,13406 Z"/>
   <path fill="none" stroke="rgb(0,0,0)" id="Drawing_1_9" stroke-width="26" d="M 17446,13378 L 17443,13322 17439,13272 17434,13226 17427,13187 17420,13153 17416,13138 17411,13125 17407,13112 17402,13102 17400,13098 17400,13098 17397,13092 17391,13083 17385,13075 17378,13069 17371,13064 17364,13060 17357,13056 17350,13054 17342,13052 17334,13052 17317,13055 17300,13061 17281,13072 17262,13086 17250,13096 17240,13107 17229,13120 17219,13134 17208,13148 17199,13163 17188,13180 17179,13198 17170,13216 17161,13235 17153,13256 17144,13278 17137,13300 17129,13324 17122,13348 17115,13373 17106,13407 17099,13442 17092,13480 17086,13521 17081,13565 17077,13609 17073,13658 17070,13708 17400,13426 17400,13426 17446,13378 Z"/>
   <rect fill="none" stroke="none" x="5000" y="9800" width="12801" height="6801"/>
  </g>
 </g>
</svg>